<?xml version="1.0" encoding="utf-8"?>
<!-- Generator: Adobe Illustrator 23.0.1, SVG Export Plug-In . SVG Version: 6.00 Build 0)  -->
<svg version="1.1" id="Layer_1" xmlns="http://www.w3.org/2000/svg" xmlns:xlink="http://www.w3.org/1999/xlink" x="0px" y="0px"
	 viewBox="0 0 1000 1000" style="enable-background:new 0 0 1000 1000;" xml:space="preserve">
<style type="text/css">
	.st0{fill:#E6E6E6;}
	.st1{fill:#F7A73A;}
	.st2{fill:#3C1273;}
	.st3{font-family:'Montserrat-SemiBold';}
	.st4{font-size:103.1132px;}
</style>
<g>
	<g>
		<path class="st1" d="M384.74,571.42c-19.97,0-38.55-10.71-48.51-27.95c-15.42-26.7-6.23-60.97,20.47-76.39
			c4.65-2.69,9.57-4.66,14.69-5.91c0.35-1.73,0.75-3.45,1.2-5.15c5.63-21.03,19.1-38.59,37.91-49.45
			c11.05-6.38,23.42-10.07,36.03-10.79c0.58-3.25,1.3-6.48,2.15-9.67c7.84-29.25,26.56-53.67,52.72-68.78
			c17.2-9.93,36.7-15.18,56.38-15.18c9.91,0,19.85,1.32,29.55,3.91c29.25,7.84,53.67,26.56,68.78,52.72
			c31.22,54.08,12.63,123.48-41.45,154.7c-17.17,9.91-36.69,15.15-56.45,15.15c-13.17,0-26.45-2.36-38.91-6.88
			c-6.92,10.58-16.25,19.41-27.37,25.83c-12.37,7.14-26.39,10.92-40.54,10.92c-7.13,0-14.27-0.95-21.24-2.81
			c-1.7-0.46-3.39-0.97-5.06-1.53c-3.64,3.81-7.81,7.08-12.46,9.77C404.14,568.83,394.5,571.42,384.74,571.42z M372.88,499.39
			c-3.66,2.67-6.29,6.49-7.49,10.95c-1.38,5.16-0.68,10.54,1.98,15.15c3.55,6.15,10.2,9.98,17.34,9.98c2.76,0,5.49-0.58,8.01-1.7
			c-4.62-4.77-8.65-10.11-12.03-15.97C377.31,511.94,374.7,505.78,372.88,499.39z M440.29,521.19c3.61,0.89,7.33,1.35,11.02,1.35
			c7.92,0,15.75-2.1,22.64-6.08c5.44-3.14,10.11-7.31,13.77-12.26c-11.21-8.83-20.52-19.62-27.77-32.16
			c-7.27-12.58-11.96-26.04-14-40.13c-6.11,0.71-12.07,2.68-17.47,5.8c-10.25,5.92-17.65,15.4-20.93,26.78
			c10.7,4.77,19.58,12.74,25.54,23.06C439.05,497.86,441.51,509.55,440.29,521.19z M531.86,488.1c2.03,0.73,4.09,1.37,6.17,1.93
			c6.64,1.78,13.44,2.68,20.21,2.68c13.4,0,26.69-3.58,38.43-10.36c17.85-10.3,30.62-26.97,35.97-46.94
			c5.35-19.97,2.62-40.79-7.68-58.64c-13.76-23.83-39.46-38.63-67.08-38.63c-13.47,0-26.78,3.57-38.5,10.34
			c-17.85,10.3-30.62,26.97-35.97,46.94c-0.56,2.08-1.03,4.19-1.42,6.31c16.7,6.78,30.61,18.85,39.73,34.64
			C530.84,452.17,534.34,470.25,531.86,488.1z"/>
		<path class="st2" d="M647.29,363.88c-13.74-23.81-35.98-40.84-62.6-47.98c-26.62-7.13-54.4-3.49-78.2,10.25
			c-23.81,13.74-40.84,35.97-47.98,62.6c-1.53,5.7-2.56,11.46-3.1,17.22c-13.82-0.85-27.58,2.35-39.82,9.41
			c-16.46,9.5-28.23,24.87-33.16,43.27c-1,3.75-1.69,7.53-2.08,11.31c-6.46,0.6-12.77,2.59-18.55,5.93
			c-21.84,12.61-29.36,40.64-16.74,62.49c8.46,14.66,23.87,22.86,39.69,22.86c7.76,0,15.61-1.97,22.8-6.12
			c5.78-3.34,10.65-7.81,14.41-13.1c3.47,1.55,7.09,2.85,10.84,3.85c6.16,1.65,12.4,2.47,18.6,2.47c12.34,0,24.5-3.23,35.45-9.55
			c12.25-7.07,21.91-17.4,28.08-29.8c13.54,6.22,28.33,9.48,43.29,9.48c17.47,0,35.17-4.44,51.36-13.79
			C658.78,476.26,675.7,413.1,647.29,363.88z M506.13,485.85c-9.61-7.06-17.73-16.09-23.86-26.7c-6.13-10.62-9.89-22.16-11.2-34.01
			c11.94,4.53,21.86,12.95,28.32,24.13C505.85,460.45,508.17,473.25,506.13,485.85z M414.59,518.98
			c-4.49-3.92-8.43-8.63-11.57-14.07c-3.1-5.38-5.24-11.13-6.41-17.06c5.75,2.48,10.79,6.76,14.15,12.59
			C414.13,506.26,415.32,512.76,414.59,518.98z M399.73,541.61c-4.73,2.73-9.91,4.03-15.02,4.03c-10.42,0-20.58-5.41-26.15-15.06
			c-4.02-6.96-5.08-15.08-3-22.87s7.07-14.29,14.03-18.31v0c3.46-2,7.15-3.22,10.87-3.74c1.13,9.42,4.16,18.59,9.04,27.04
			c4.88,8.45,11.31,15.66,18.9,21.35C406.09,537.03,403.19,539.62,399.73,541.61z M479.03,525.27c-8.74,5.05-18.29,7.44-27.73,7.44
			c-7.81,0-15.53-1.64-22.65-4.79c0.06-0.2,0.12-0.39,0.17-0.59c3.17-11.81,1.55-24.14-4.55-34.71
			c-6.1-10.57-15.97-18.13-27.78-21.29c-0.2-0.05-0.4-0.09-0.6-0.14c0.31-2.84,0.83-5.69,1.59-8.5
			c3.85-14.37,13.05-26.37,25.9-33.79c8.55-4.94,18.05-7.46,27.68-7.46c1.35,0,2.7,0.05,4.05,0.15c0.92,15.8,5.51,31.27,13.64,45.36
			c8.28,14.34,19.5,25.93,32.47,34.46C496.43,511.36,488.79,519.64,479.03,525.27z M642.47,438.04
			c-6.05,22.59-20.51,41.46-40.71,53.12c-20.2,11.66-43.77,14.75-66.36,8.7c-5.25-1.41-10.29-3.27-15.09-5.55
			c4.51-18.03,1.9-36.75-7.39-52.85c-9.29-16.1-24.2-27.71-42.07-32.83c0.43-5.3,1.33-10.6,2.74-15.85
			c6.05-22.59,20.51-41.46,40.71-53.12c41.77-24.11,95.37-9.75,119.48,32.02C645.43,391.88,648.52,415.45,642.47,438.04z"/>
		<circle class="st2" cx="433" cy="380.24" r="7.52"/>
		<circle class="st2" cx="427.57" cy="567.95" r="7.52"/>
		<circle class="st2" cx="621.21" cy="301.69" r="7.52"/>
		<circle class="st2" cx="342.79" cy="575.29" r="7.52"/>
	</g>
	<text transform="matrix(1 0 0 1 299.9625 685.0535)" class="st2 st3 st4">OriGem</text>
</g>
</svg>
